<svg width="62" height="63" viewBox="0 0 62 63" fill="none" xmlns="http://www.w3.org/2000/svg">
<circle cx="30.9675" cy="31.1476" r="30.9675" fill="#292E36"/>
<path d="M48 29.4718H13M35.5 29.4718V31.2843C35.5 31.4446 35.4342 31.5983 35.3169 31.7116C35.1997 31.8249 35.0408 31.8885 34.875 31.8885H26.125C25.9592 31.8885 25.8003 31.8249 25.6831 31.7116C25.5658 31.5983 25.5 31.4446 25.5 31.2843V29.4718M16.75 21.0135H44.25C46.3211 21.0135 48 22.6365 48 24.6385V41.5552C48 43.5572 46.3211 45.1802 44.25 45.1802H16.75C14.6789 45.1802 13 43.5572 13 41.5552V24.6385C13 22.6365 14.6789 21.0135 16.75 21.0135ZM21.75 21.0135V18.5968C21.75 17.9559 22.0134 17.3412 22.4822 16.888C22.9511 16.4348 23.587 16.1802 24.25 16.1802H36.75C37.413 16.1802 38.0489 16.4348 38.5178 16.888C38.9866 17.3412 39.25 17.9559 39.25 18.5968V21.0135H21.75Z" stroke="white" stroke-width="2" stroke-linecap="round" stroke-linejoin="round"/>
</svg>
