<?xml version="1.0"?>
<svg width="300" height="193" xmlns="http://www.w3.org/2000/svg" xmlns:svg="http://www.w3.org/2000/svg">
 <g class="layer">
  <title>Layer 1</title>
  <path d="m151,149.35c-26.99,0 -48.95,-22.12 -48.95,-49.33c0,-27.2 21.96,-49.31 48.95,-49.31c26.98,0 48.95,22.12 48.95,49.33c0,27.21 -21.97,49.31 -48.95,49.31zm0,-97.06c-26.13,0 -47.39,21.41 -47.39,47.75c0,26.34 21.26,47.74 47.39,47.74c26.12,0 47.39,-21.42 47.39,-47.76c0,-26.34 -21.27,-47.73 -47.39,-47.73z" fill="#E1B168" id="svg_1"/>
  <path d="m151.01,171.07c-4.58,0 -9.16,-0.52 -13.61,-1.51c-4.35,-0.99 -8.6,-2.46 -12.67,-4.35c-4,-1.86 -7.86,-4.2 -11.47,-6.87c-3.58,-2.65 -6.94,-5.73 -9.99,-9.11c-3.06,-3.36 -5.82,-7.09 -8.25,-11.03c-0.25,-0.39 -0.14,-0.93 0.21,-1.19c0.36,-0.26 0.84,-0.18 1.07,0.23c2.36,3.86 5.08,7.49 8.07,10.79c2.98,3.29 6.26,6.29 9.76,8.88c3.52,2.63 7.3,4.89 11.21,6.72c3.98,1.86 8.14,3.28 12.37,4.24c8.69,1.97 17.89,1.97 26.58,0c4.23,-0.94 8.4,-2.38 12.37,-4.24c3.91,-1.83 7.68,-4.09 11.21,-6.72c3.5,-2.6 6.78,-5.6 9.76,-8.88c2.99,-3.3 5.69,-6.93 8.06,-10.79c0.25,-0.41 0.74,-0.5 1.08,-0.23c0.36,0.26 0.46,0.81 0.21,1.19c-2.43,3.95 -5.19,7.66 -8.25,11.03c-3.05,3.36 -6.41,6.43 -9.99,9.11c-3.61,2.7 -7.47,5.01 -11.47,6.87c-4.08,1.9 -8.34,3.36 -12.67,4.35c-4.44,1 -9.01,1.51 -13.59,1.51z" fill="#E1B168" id="svg_2"/>
  <path d="m82.28,54.16c0.06,0.38 -0.02,0.79 -0.24,1.26c-0.23,0.5 -0.56,0.87 -1.01,1.06c-0.46,0.18 -1.08,0.2 -1.89,0.03l-2.03,-0.44c-0.71,-0.16 -1.27,-0.24 -1.68,-0.27c-0.4,-0.03 -0.76,0.05 -1.09,0.2c-0.33,0.18 -0.59,0.49 -0.81,0.96l-0.8,1.78l4.25,1.96c0.47,0.22 0.81,0.33 1.06,0.34c0.25,0.02 0.46,-0.05 0.63,-0.22c0.17,-0.17 0.36,-0.47 0.59,-0.91l0.38,0.17c-0.3,0.55 -0.68,1.34 -1.13,2.35c-0.48,1.07 -0.83,1.87 -1.01,2.41l-0.38,-0.18c0.19,-0.45 0.28,-0.8 0.3,-1.04c0.01,-0.23 -0.06,-0.44 -0.25,-0.61c-0.17,-0.17 -0.5,-0.36 -0.96,-0.58l-9.17,-4.21c-0.47,-0.22 -0.81,-0.33 -1.06,-0.34c-0.25,-0.02 -0.45,0.04 -0.62,0.22c-0.18,0.17 -0.36,0.47 -0.6,0.91l-0.37,-0.17c0.26,-0.51 0.62,-1.26 1.07,-2.25c0.22,-0.49 0.46,-1.03 0.71,-1.61c0.25,-0.6 0.42,-0.99 0.53,-1.21c0.44,-0.98 0.95,-1.73 1.53,-2.27c0.58,-0.55 1.19,-0.88 1.83,-0.99c0.64,-0.11 1.26,-0.03 1.87,0.25c0.49,0.22 0.93,0.55 1.3,1.01c0.39,0.45 0.66,1.04 0.8,1.76c0.14,0.73 0.08,1.54 -0.17,2.49l0.14,-0.21c0.34,-0.51 0.68,-0.89 1.01,-1.14c0.33,-0.26 0.7,-0.4 1.11,-0.46c0.41,-0.05 0.91,-0.02 1.49,0.11l2.09,0.39c0.41,0.1 0.75,0.16 1,0.18c0.25,0.01 0.45,-0.02 0.61,-0.08c0.15,-0.07 0.26,-0.19 0.34,-0.35c0.1,-0.2 0.13,-0.39 0.08,-0.58c-0.05,-0.19 -0.16,-0.44 -0.31,-0.76l0.33,-0.19c0.29,0.44 0.46,0.87 0.53,1.23zm-8.86,1.01c-0.05,-0.6 -0.27,-1.09 -0.63,-1.47c-0.36,-0.39 -0.86,-0.72 -1.48,-1c-1.02,-0.46 -1.89,-0.57 -2.63,-0.33c-0.73,0.25 -1.34,0.91 -1.84,2.01c-0.17,0.4 -0.27,0.69 -0.27,0.93c0,0.24 0.1,0.44 0.29,0.61c0.18,0.18 0.5,0.37 0.93,0.57l4.55,2.08l0.56,-1.26c0.41,-0.83 0.58,-1.54 0.52,-2.14z" fill="#E1B168" id="svg_4"/>
  <path d="m86.5,40.34c0.62,0.45 1.36,0.91 2.18,1.4c-0.56,0.72 -1.48,1.98 -2.75,3.78c-1.51,2.12 -2.64,3.74 -3.37,4.86l-0.33,-0.24c0.27,-0.41 0.44,-0.74 0.48,-0.96c0.05,-0.22 0.02,-0.45 -0.12,-0.64c-0.14,-0.21 -0.42,-0.46 -0.83,-0.76l-8.2,-5.9c-0.42,-0.3 -0.74,-0.49 -0.97,-0.55c-0.23,-0.07 -0.45,-0.03 -0.66,0.09c-0.2,0.13 -0.45,0.4 -0.75,0.79l-0.32,-0.24c0.79,-1.07 1.96,-2.66 3.46,-4.8c1.16,-1.64 1.97,-2.8 2.43,-3.51c0.67,0.6 1.29,1.1 1.87,1.53c0.44,0.31 0.78,0.53 1.06,0.69l-0.26,0.38c-0.78,-0.44 -1.38,-0.71 -1.81,-0.85c-0.44,-0.14 -0.85,-0.11 -1.21,0.06c-0.36,0.17 -0.75,0.55 -1.17,1.15l-0.98,1.39c-0.29,0.39 -0.46,0.7 -0.52,0.94c-0.06,0.22 -0.03,0.44 0.11,0.65c0.14,0.2 0.41,0.45 0.83,0.75l3.89,2.8l0.78,-1.1c0.39,-0.55 0.5,-1.05 0.3,-1.46c-0.21,-0.43 -0.46,-0.79 -0.77,-1.07c-0.31,-0.3 -0.51,-0.49 -0.61,-0.57l0.27,-0.38c0.51,0.43 1.01,0.82 1.51,1.18l0.8,0.57c0.56,0.41 1.36,0.93 2.42,1.59l-0.26,0.38c-0.08,-0.05 -0.38,-0.21 -0.86,-0.49c-0.5,-0.28 -0.96,-0.38 -1.36,-0.3c-0.41,0.08 -0.78,0.35 -1.1,0.8l-0.78,1.11l3.97,2.86c0.41,0.3 0.74,0.49 0.97,0.55c0.23,0.07 0.45,0.03 0.64,-0.11c0.19,-0.14 0.44,-0.41 0.72,-0.8l0.86,-1.21c0.5,-0.7 0.78,-1.29 0.84,-1.78c0.08,-0.49 -0.03,-0.96 -0.33,-1.42c-0.29,-0.46 -0.79,-0.99 -1.51,-1.65l0.26,-0.38c0.3,0.19 0.68,0.5 1.18,0.87z" fill="#E1B168" id="svg_5"/>
  <path d="m93.4,36.06c1.02,0.21 1.96,-0.11 2.82,-0.96c0.32,-0.33 0.57,-0.69 0.73,-1.12c0.16,-0.42 0.17,-0.86 0.08,-1.33c-0.1,-0.48 -0.38,-0.93 -0.8,-1.36c-0.36,-0.38 -0.78,-0.63 -1.25,-0.74c-0.47,-0.12 -0.98,-0.16 -1.53,-0.09c-0.55,0.06 -1.23,0.19 -2.06,0.38c-0.92,0.22 -1.69,0.36 -2.3,0.42c-0.62,0.06 -1.22,0.02 -1.83,-0.14c-0.59,-0.16 -1.14,-0.5 -1.64,-1.02c-0.53,-0.56 -0.86,-1.15 -0.98,-1.77c-0.13,-0.63 -0.07,-1.24 0.17,-1.82c0.23,-0.59 0.59,-1.14 1.09,-1.63c0.3,-0.29 0.58,-0.52 0.85,-0.67c0.26,-0.16 0.5,-0.27 0.72,-0.35c0.21,-0.06 0.45,-0.13 0.73,-0.17c0.36,-0.08 0.59,-0.18 0.7,-0.29c0.1,-0.09 0.11,-0.2 0.07,-0.36c-0.05,-0.14 -0.18,-0.34 -0.36,-0.6l0.32,-0.33c0.5,0.62 1.44,1.64 2.82,3.07l-0.33,0.33c-0.52,-0.47 -1.08,-0.81 -1.66,-1.07c-0.59,-0.25 -1.19,-0.34 -1.78,-0.26c-0.59,0.07 -1.16,0.36 -1.67,0.85c-0.34,0.33 -0.58,0.7 -0.72,1.11c-0.12,0.41 -0.16,0.82 -0.05,1.23c0.11,0.41 0.32,0.77 0.63,1.12c0.51,0.53 1.08,0.8 1.72,0.82c0.62,0.01 1.28,-0.06 1.95,-0.21c0.67,-0.14 1.13,-0.25 1.36,-0.31c0.98,-0.21 1.8,-0.35 2.42,-0.41c0.63,-0.06 1.24,-0.02 1.81,0.16c0.58,0.17 1.11,0.5 1.58,0.99c0.58,0.6 0.94,1.24 1.06,1.94c0.13,0.69 0.07,1.37 -0.2,2.03c-0.26,0.66 -0.69,1.29 -1.26,1.85c-0.47,0.46 -0.89,0.78 -1.29,0.98c-0.39,0.19 -0.79,0.33 -1.23,0.43c-0.34,0.07 -0.58,0.17 -0.7,0.28c-0.1,0.09 -0.11,0.2 -0.07,0.36c0.05,0.14 0.18,0.35 0.36,0.6l-0.32,0.33c-0.49,-0.57 -1.6,-1.76 -3.33,-3.57l0.33,-0.4c1.01,0.93 2.03,1.5 3.04,1.7z" fill="#E1B168" id="svg_6"/>
  <path d="m97.65,19.84c-0.44,-0.66 -0.97,-1.37 -1.56,-2.1c0.95,-0.59 2.56,-1.65 4.8,-3.16c2.23,-1.5 3.79,-2.58 4.7,-3.24c0.45,0.86 0.91,1.6 1.33,2.25c0.37,0.56 0.7,1.02 0.97,1.37l-0.39,0.26c-0.68,-0.81 -1.22,-1.4 -1.63,-1.73c-0.42,-0.33 -0.86,-0.49 -1.33,-0.45c-0.47,0.03 -1.04,0.28 -1.75,0.75l-0.92,0.62l6.42,9.68c0.32,0.47 0.6,0.79 0.82,0.94c0.23,0.16 0.5,0.21 0.78,0.13c0.28,-0.08 0.68,-0.27 1.2,-0.58l0.22,0.34c-0.61,0.37 -1.45,0.92 -2.52,1.62c-1.12,0.76 -1.95,1.34 -2.47,1.74l-0.21,-0.35c0.48,-0.35 0.82,-0.65 1,-0.88c0.17,-0.24 0.23,-0.51 0.17,-0.77c-0.06,-0.29 -0.24,-0.65 -0.55,-1.12l-6.42,-9.68l-0.92,0.61c-0.71,0.47 -1.16,0.91 -1.36,1.34c-0.21,0.42 -0.24,0.9 -0.1,1.4c0.14,0.52 0.47,1.24 0.97,2.19l-0.39,0.27c-0.19,-0.4 -0.48,-0.87 -0.86,-1.45z" fill="#E1B168" id="svg_7"/>
  <path d="m128.03,17.56l0.15,0.38c-0.53,0.19 -1.2,0.46 -2.03,0.82c-1.06,0.45 -1.84,0.82 -2.36,1.08l-0.15,-0.37c0.47,-0.22 0.78,-0.43 0.93,-0.62c0.16,-0.19 0.19,-0.41 0.08,-0.66c-0.09,-0.22 -0.29,-0.47 -0.59,-0.79l-2.47,-2.58l-4.5,1.95l0.08,2.33c0.01,0.74 0.12,1.31 0.28,1.71c0.17,0.39 0.42,0.62 0.77,0.67c0.34,0.07 0.78,-0.03 1.34,-0.25l0.16,0.38c-0.72,0.27 -1.46,0.56 -2.18,0.88c-0.56,0.24 -1.01,0.46 -1.37,0.66l-0.16,-0.38c0.56,-0.41 0.81,-1.16 0.77,-2.26l-0.47,-13.31l0.3,-0.12l9.59,9.85c0.66,0.63 1.27,0.85 1.83,0.63zm-11.21,-7.76l0.25,6.53l4.24,-1.82l-4.49,-4.71z" fill="#E1B168" id="svg_8"/>
  <path d="m140.48,2.56c-0.2,0.16 -0.31,0.38 -0.34,0.66c-0.04,0.28 0.01,0.68 0.12,1.2l1.25,6.03c0.21,0.96 0.31,1.79 0.33,2.5c0.01,0.71 -0.06,1.35 -0.27,1.91c-0.22,0.64 -0.6,1.19 -1.18,1.66c-0.58,0.48 -1.27,0.79 -2.07,0.96c-1.45,0.3 -2.64,0.18 -3.56,-0.39c-0.47,-0.28 -0.86,-0.61 -1.16,-0.99c-0.29,-0.38 -0.54,-0.84 -0.75,-1.42c-0.2,-0.56 -0.4,-1.32 -0.59,-2.27l-1.29,-6.29c-0.11,-0.51 -0.22,-0.87 -0.35,-1.07c-0.12,-0.21 -0.31,-0.33 -0.55,-0.38c-0.23,-0.03 -0.59,-0.02 -1.07,0.06l-0.08,-0.39c0.58,-0.08 1.42,-0.24 2.56,-0.47c1.06,-0.22 1.91,-0.43 2.53,-0.59l0.08,0.4c-0.47,0.12 -0.81,0.25 -1.02,0.37c-0.2,0.13 -0.31,0.32 -0.34,0.57c-0.03,0.25 0,0.62 0.11,1.12l1.38,6.63c0.21,1.07 0.46,1.93 0.76,2.61c0.28,0.68 0.7,1.18 1.25,1.51c0.55,0.33 1.27,0.41 2.16,0.22c1.4,-0.3 2.29,-0.96 2.68,-1.98c0.4,-1.02 0.41,-2.36 0.07,-4l-1.3,-6.25c-0.11,-0.49 -0.24,-0.87 -0.41,-1.1c-0.17,-0.24 -0.39,-0.4 -0.67,-0.46c-0.28,-0.06 -0.66,-0.06 -1.12,0.02l-0.13,-0.4c0.49,-0.06 1.17,-0.19 2.05,-0.36c0.79,-0.17 1.41,-0.31 1.83,-0.44l0.08,0.39c-0.46,0.13 -0.79,0.26 -0.99,0.43z" fill="#E1B168" id="svg_9"/>
  <path d="m158.45,16.11c-0.31,0.2 -0.72,0.31 -1.22,0.33c-0.56,0.02 -1.01,-0.14 -1.38,-0.47c-0.35,-0.33 -0.63,-0.9 -0.84,-1.72l-0.48,-2.03c-0.18,-0.71 -0.33,-1.26 -0.49,-1.64c-0.14,-0.37 -0.37,-0.67 -0.65,-0.91c-0.29,-0.24 -0.69,-0.33 -1.21,-0.33l-1.92,0.05l0.08,4.7c0.01,0.52 0.06,0.89 0.14,1.12c0.09,0.24 0.24,0.4 0.47,0.47c0.23,0.08 0.58,0.13 1.06,0.15l0,0.41c-0.62,-0.04 -1.48,-0.04 -2.58,-0.02c-1.17,0.02 -2.03,0.05 -2.59,0.09l0,-0.4c0.48,-0.04 0.84,-0.1 1.06,-0.18c0.22,-0.09 0.38,-0.25 0.45,-0.49c0.08,-0.23 0.12,-0.61 0.12,-1.11l-0.16,-10.16c0,-0.52 -0.06,-0.88 -0.14,-1.12c-0.08,-0.23 -0.24,-0.39 -0.47,-0.47c-0.23,-0.08 -0.58,-0.13 -1.06,-0.14l0,-0.41c0.56,0.03 1.39,0.03 2.48,0.02c0.53,-0.02 1.11,-0.04 1.75,-0.05c0.64,-0.02 1.05,-0.05 1.28,-0.05c1.07,-0.01 1.95,0.13 2.69,0.43c0.73,0.3 1.3,0.7 1.67,1.24c0.38,0.54 0.58,1.13 0.58,1.81c0.01,0.54 -0.11,1.07 -0.34,1.62c-0.24,0.55 -0.66,1.04 -1.24,1.48c-0.56,0.44 -1.34,0.74 -2.28,0.9l0.25,0.03c0.61,0.1 1.09,0.24 1.47,0.43c0.36,0.2 0.65,0.47 0.87,0.81c0.22,0.35 0.41,0.82 0.55,1.41l0.55,2.07c0.09,0.43 0.18,0.74 0.28,0.98c0.09,0.24 0.2,0.41 0.33,0.52c0.12,0.11 0.28,0.17 0.47,0.16c0.22,0 0.4,-0.07 0.54,-0.19c0.14,-0.13 0.33,-0.33 0.55,-0.62l0.31,0.23c-0.33,0.5 -0.64,0.83 -0.95,1.05zm-4.69,-7.64c0.52,-0.3 0.86,-0.69 1.05,-1.19c0.19,-0.49 0.28,-1.09 0.26,-1.78c-0.01,-1.12 -0.29,-1.97 -0.82,-2.52c-0.53,-0.57 -1.41,-0.84 -2.6,-0.82c-0.42,0 -0.73,0.06 -0.95,0.16c-0.22,0.09 -0.36,0.27 -0.42,0.52c-0.08,0.25 -0.11,0.61 -0.11,1.1l0.08,5.04l1.37,-0.02c0.92,-0.03 1.63,-0.19 2.14,-0.49z" fill="#E1B168" id="svg_10"/>
  <path d="m177.34,19.1l-0.08,0.41c-0.53,-0.14 -1.25,-0.3 -2.12,-0.48c-1.14,-0.22 -1.99,-0.36 -2.57,-0.44l0.08,-0.41c0.52,0.08 0.89,0.1 1.13,0.04c0.23,-0.07 0.39,-0.22 0.44,-0.49c0.04,-0.24 0.03,-0.55 -0.05,-0.99l-0.6,-3.55l-4.81,-0.93l-1.23,1.97c-0.39,0.63 -0.64,1.15 -0.72,1.58c-0.08,0.42 0,0.75 0.25,0.99c0.25,0.24 0.67,0.42 1.25,0.55l-0.08,0.41c-0.75,-0.19 -1.51,-0.36 -2.28,-0.5c-0.6,-0.11 -1.1,-0.19 -1.5,-0.24l0.08,-0.41c0.69,-0.02 1.32,-0.5 1.9,-1.45l7.04,-11.26l0.32,0.07l2.44,13.58c0.14,0.89 0.52,1.41 1.11,1.55zm-4.94,-12.77l-3.43,5.56l4.51,0.88l-1.08,-6.44z" fill="#E1B168" id="svg_11" transform="rotate(5 171 11.705)"/>
  <path d="m197.62,14.23c-0.25,0.02 -0.47,0.15 -0.65,0.35c-0.19,0.22 -0.38,0.57 -0.57,1.05l-4.61,11.29l-0.44,-0.17l-2.87,-15.56l-4.08,10c-0.2,0.49 -0.31,0.87 -0.33,1.15c-0.01,0.29 0.08,0.52 0.27,0.73c0.19,0.2 0.53,0.42 1.01,0.64l-0.15,0.38c-0.44,-0.22 -1.06,-0.5 -1.89,-0.85c-0.75,-0.32 -1.33,-0.54 -1.77,-0.66l0.16,-0.38c0.44,0.16 0.8,0.24 1.05,0.2c0.25,-0.01 0.47,-0.14 0.65,-0.34c0.19,-0.21 0.38,-0.57 0.57,-1.06l3.75,-9.19c0.18,-0.47 0.29,-0.84 0.31,-1.09c0.01,-0.25 -0.06,-0.45 -0.24,-0.61c-0.17,-0.16 -0.48,-0.35 -0.92,-0.55l0.16,-0.38c0.39,0.2 0.97,0.47 1.72,0.77c0.56,0.24 1.06,0.43 1.48,0.55l2.42,13.05l3.32,-8.09c0.2,-0.49 0.31,-0.86 0.32,-1.15c0.02,-0.28 -0.06,-0.52 -0.26,-0.72c-0.19,-0.21 -0.53,-0.43 -1.02,-0.65l0.16,-0.38c0.43,0.23 1.06,0.51 1.89,0.85c0.75,0.32 1.33,0.54 1.76,0.67l-0.15,0.37c-0.44,-0.15 -0.78,-0.23 -1.05,-0.22z" fill="#E1B168" id="svg_12"/>
  <path d="m200.97,20.28c0.43,-0.66 0.88,-1.42 1.32,-2.25c0.91,0.66 2.49,1.76 4.72,3.27c2.22,1.51 3.81,2.57 4.77,3.16c-0.61,0.76 -1.14,1.45 -1.56,2.1c-0.38,0.57 -0.68,1.04 -0.88,1.43l-0.39,-0.27c0.5,-0.94 0.83,-1.67 0.97,-2.17c0.14,-0.52 0.12,-0.98 -0.1,-1.4c-0.2,-0.43 -0.65,-0.88 -1.35,-1.35l-0.91,-0.62l-6.46,9.65c-0.31,0.48 -0.5,0.85 -0.56,1.12c-0.06,0.27 0,0.54 0.18,0.77c0.17,0.24 0.5,0.54 1,0.9l-0.24,0.35c-0.58,-0.44 -1.39,-1.01 -2.44,-1.74c-1.12,-0.75 -1.97,-1.3 -2.53,-1.63l0.24,-0.35c0.51,0.32 0.9,0.52 1.18,0.6c0.29,0.08 0.55,0.03 0.79,-0.13c0.23,-0.15 0.51,-0.47 0.82,-0.94l6.46,-9.65l-0.91,-0.62c-0.7,-0.47 -1.28,-0.72 -1.75,-0.75c-0.47,-0.03 -0.91,0.11 -1.33,0.44c-0.42,0.33 -0.97,0.91 -1.64,1.73l-0.39,-0.27c0.27,-0.36 0.59,-0.82 0.99,-1.38z" fill="#E1B168" id="svg_13"/>
  <path d="m221.47,62.35l-0.38,0.18c-0.2,-0.53 -0.49,-1.19 -0.88,-2c-0.5,-1.05 -0.9,-1.83 -1.19,-2.32l0.37,-0.19c0.25,0.45 0.46,0.76 0.66,0.92c0.19,0.15 0.4,0.17 0.65,0.06c0.21,-0.11 0.47,-0.32 0.76,-0.63l2.47,-2.59l-2.11,-4.43l-2.29,0.19c-0.73,0.05 -1.3,0.18 -1.67,0.36c-0.39,0.19 -0.6,0.45 -0.65,0.81c-0.04,0.35 0.06,0.79 0.31,1.33l-0.37,0.19c-0.32,-0.71 -0.62,-1.43 -0.96,-2.14c-0.27,-0.55 -0.5,-1 -0.7,-1.34l0.37,-0.19c0.43,0.54 1.18,0.76 2.27,0.68l13.18,-1.08l0.13,0.3l-9.41,10.08c-0.64,0.62 -0.83,1.24 -0.58,1.8l0.02,0.01zm7.25,-11.62l-6.49,0.54l1.99,4.17l4.49,-4.72l0.01,0.01z" fill="#E1B168" id="svg_14"/>
  <path d="m214.76,45.54c-0.6,0.49 -1.23,1.09 -1.93,1.78c-0.55,-0.75 -1.53,-1.97 -2.92,-3.67c-1.66,-2.02 -2.92,-3.53 -3.8,-4.56l0.32,-0.26c0.33,0.37 0.6,0.61 0.81,0.73c0.21,0.13 0.43,0.13 0.67,0.05c0.24,-0.07 0.53,-0.29 0.94,-0.6l7.77,-6.44c0.4,-0.31 0.65,-0.6 0.77,-0.81c0.13,-0.21 0.16,-0.44 0.08,-0.65c-0.07,-0.23 -0.25,-0.54 -0.55,-0.93l0.31,-0.27c0.83,1.07 2.06,2.59 3.71,4.64c1.26,1.55 2.18,2.64 2.75,3.27c-0.74,0.49 -1.39,0.97 -1.94,1.42c-0.41,0.34 -0.71,0.62 -0.93,0.85l-0.29,-0.37c0.63,-0.63 1.04,-1.16 1.28,-1.54c0.24,-0.39 0.33,-0.79 0.25,-1.2c-0.08,-0.4 -0.33,-0.88 -0.79,-1.43l-1.07,-1.31c-0.32,-0.39 -0.57,-0.63 -0.77,-0.76c-0.2,-0.12 -0.41,-0.15 -0.65,-0.05c-0.22,0.07 -0.53,0.29 -0.93,0.61l-3.69,3.06l0.86,1.05c0.43,0.54 0.89,0.76 1.33,0.67c0.46,-0.09 0.88,-0.25 1.23,-0.47c0.36,-0.23 0.6,-0.38 0.71,-0.44l0.29,0.37c-0.55,0.39 -1.05,0.79 -1.52,1.17l-0.73,0.62c-0.54,0.43 -1.25,1.08 -2.16,1.92l-0.29,-0.36c0.06,-0.07 0.29,-0.31 0.69,-0.72c0.39,-0.41 0.6,-0.81 0.63,-1.25c0.03,-0.43 -0.12,-0.85 -0.48,-1.27l-0.86,-1.06l-3.76,3.11c-0.4,0.32 -0.65,0.6 -0.77,0.8c-0.12,0.2 -0.14,0.43 -0.07,0.65c0.08,0.23 0.28,0.54 0.59,0.91l0.94,1.17c0.53,0.66 1.04,1.09 1.49,1.29c0.46,0.21 0.94,0.22 1.44,0.06c0.5,-0.17 1.16,-0.51 1.97,-1.03l0.29,0.37c-0.33,0.21 -0.71,0.51 -1.19,0.9l-0.03,-0.02z" fill="#E1B168" id="svg_16"/>
  <path d="m79.34,135.03l0.42,1.01l-8.06,0.63l-0.42,-1.01l5.04,-4.33l-6.61,0.63l-0.42,-1l6.03,-5.42l0.44,1.04l-5.22,4.45l6.8,-0.71l0.41,0.98l-5.22,4.46l6.81,-0.73z" fill="#E1B168" id="svg_17" transform="matrix(1 0 0 1 0 0)"/>
  <path d="m79.78,138.38l2.67,4.63l-0.83,0.49l-2.16,-3.71l-2.04,1.19l1.92,3.33l-0.83,0.48l-1.92,-3.32l-2.11,1.24l2.22,3.83l-0.83,0.49l-2.75,-4.74l6.66,-3.91z" fill="#E1B168" id="svg_18" transform="rotate(5 78 142.705)"/>
  <path d="m89.89,156.82c-0.09,-0.4 -0.25,-0.78 -0.5,-1.11c-0.31,-0.44 -0.71,-0.77 -1.2,-0.98c-0.48,-0.2 -0.97,-0.3 -1.5,-0.23c-0.53,0.06 -1,0.23 -1.44,0.56c-0.42,0.32 -0.75,0.71 -0.95,1.2c-0.2,0.49 -0.28,0.99 -0.23,1.51c0.06,0.52 0.23,1.01 0.56,1.45c0.23,0.33 0.53,0.6 0.89,0.82c0.36,0.22 0.75,0.36 1.16,0.44l-0.19,0.93c-0.53,-0.1 -1.05,-0.29 -1.52,-0.57c-0.47,-0.28 -0.86,-0.65 -1.17,-1.07c-0.44,-0.6 -0.69,-1.24 -0.77,-1.94c-0.07,-0.69 0.02,-1.37 0.3,-2.01c0.28,-0.65 0.7,-1.18 1.28,-1.61c0.58,-0.42 1.21,-0.68 1.89,-0.74c0.69,-0.06 1.36,0.05 1.99,0.35c0.64,0.3 1.17,0.74 1.61,1.34c0.31,0.42 0.53,0.91 0.67,1.43c0.14,0.52 0.16,1.04 0.08,1.56l-0.97,-0.07c0.12,-0.42 0.11,-0.83 0.01,-1.26z" fill="#E1B168" id="svg_19" transform="matrix(1 0 0 1 0 0) matrix(0.996195 -0.0871557 0.0871557 0.996195 -13.3231 8.13504)"/>
  <path d="m97.08,163.56c0.15,0.69 0.13,1.37 -0.04,2.04c-0.2,0.68 -0.53,1.25 -1.03,1.74c-0.5,0.48 -1.05,0.8 -1.7,0.94c-0.65,0.14 -1.27,0.11 -1.9,-0.11c-0.63,-0.22 -1.17,-0.61 -1.64,-1.15c-0.47,-0.53 -0.78,-1.16 -0.92,-1.86c-0.15,-0.69 -0.14,-1.38 0.06,-2.04c0.19,-0.68 0.52,-1.26 1.02,-1.75c0.5,-0.49 1.06,-0.8 1.7,-0.95c0.64,-0.14 1.27,-0.09 1.89,0.13c0.63,0.22 1.17,0.61 1.64,1.17c0.45,0.53 0.76,1.15 0.92,1.84zm-2.77,-2.05c-0.47,-0.16 -0.96,-0.19 -1.42,-0.08c-0.49,0.11 -0.91,0.35 -1.27,0.71c-0.37,0.36 -0.63,0.8 -0.78,1.31c-0.14,0.5 -0.16,1.02 -0.06,1.54c0.1,0.52 0.32,0.98 0.66,1.37c0.34,0.39 0.73,0.66 1.2,0.82c0.47,0.16 0.94,0.17 1.42,0.06c0.49,-0.11 0.91,-0.34 1.28,-0.71c0.38,-0.36 0.64,-0.8 0.78,-1.3c0.15,-0.51 0.16,-1.01 0.07,-1.53c-0.1,-0.52 -0.33,-0.96 -0.67,-1.36c-0.35,-0.39 -0.74,-0.66 -1.21,-0.83z" fill="#E1B168" id="svg_20" transform="matrix(1 0 0 1 0 0)"/>
  <path d="m84.15,146.49l0.57,0.89l-5.61,3.71l1.84,2.81l-0.8,0.53l-2.41,-3.69l6.42,-4.25l-0.01,0z" fill="#E1B168" id="svg_21"/>
  <path d="m108.57,171.76l4.96,1.96l-0.34,0.89l-3.98,-1.57l-0.86,2.22l3.55,1.42l-0.34,0.89l-3.57,-1.41l-0.89,2.3l4.09,1.63l-0.35,0.89l-5.06,-2.02l2.79,-7.19l0,-0.01z" fill="#E1B168" id="svg_22" transform="rotate(5 110 176.361)"/>
  <path d="m117.56,177.23l5.84,1.38l-0.21,0.94l-2.42,-0.56l-1.51,6.57l-1.02,-0.24l1.51,-6.57l-2.4,-0.57l0.21,-0.94l0,-0.01z" fill="#E1B168" id="svg_23" transform="rotate(10 120 181.388)"/>
  <path d="m131.29,182.56c0.44,0.55 0.72,1.18 0.82,1.87c0.11,0.69 0.01,1.37 -0.25,2.03c-0.27,0.66 -0.69,1.22 -1.25,1.64c-0.57,0.43 -1.19,0.68 -1.89,0.77c-0.71,0.1 -1.4,-0.01 -2.08,-0.3c-0.69,-0.28 -1.24,-0.71 -1.67,-1.26c-0.44,-0.55 -0.71,-1.18 -0.82,-1.89c-0.11,-0.69 -0.01,-1.38 0.25,-2.04c0.27,-0.66 0.69,-1.22 1.24,-1.63c0.54,-0.4 1.18,-0.66 1.87,-0.75c0.71,-0.08 1.39,0.01 2.08,0.3c0.7,0.28 1.27,0.69 1.7,1.26zm-3.54,-0.59c-0.52,0.07 -0.99,0.27 -1.41,0.59c-0.42,0.31 -0.73,0.72 -0.94,1.23c-0.2,0.5 -0.26,1.02 -0.18,1.54c0.07,0.52 0.28,0.99 0.59,1.42c0.33,0.42 0.73,0.74 1.22,0.94c0.5,0.21 1,0.27 1.51,0.19c0.52,-0.08 0.99,-0.27 1.41,-0.6c0.42,-0.31 0.73,-0.72 0.94,-1.23c0.2,-0.5 0.26,-1 0.18,-1.52c-0.07,-0.52 -0.26,-1 -0.59,-1.4c-0.33,-0.41 -0.72,-0.73 -1.2,-0.93c-0.5,-0.23 -1.02,-0.29 -1.53,-0.23z" fill="#E1B168" id="svg_24" transform="matrix(1 0 0 1 0 0)"/>
  <path d="m144.56,184.35c0.53,0.48 0.91,1.04 1.12,1.71c0.22,0.66 0.25,1.33 0.1,2.04c-0.16,0.71 -0.47,1.31 -0.96,1.83c-0.48,0.52 -1.06,0.88 -1.73,1.08c-0.67,0.21 -1.37,0.24 -2.09,0.07c-0.72,-0.16 -1.35,-0.47 -1.88,-0.95c-0.53,-0.47 -0.9,-1.05 -1.12,-1.71c-0.22,-0.68 -0.25,-1.36 -0.1,-2.07c0.16,-0.7 0.47,-1.3 0.95,-1.81c0.49,-0.5 1.05,-0.86 1.72,-1.07c0.68,-0.2 1.38,-0.22 2.1,-0.06c0.73,0.16 1.36,0.47 1.89,0.94zm-3.59,0.05c-0.5,0.16 -0.94,0.43 -1.3,0.82c-0.36,0.4 -0.6,0.84 -0.72,1.37c-0.13,0.54 -0.1,1.06 0.08,1.56c0.17,0.5 0.44,0.93 0.82,1.29c0.4,0.36 0.85,0.6 1.37,0.71c0.51,0.11 1.03,0.09 1.51,-0.08c0.5,-0.16 0.92,-0.44 1.28,-0.82c0.36,-0.39 0.59,-0.85 0.72,-1.37c0.12,-0.53 0.09,-1.04 -0.06,-1.54c-0.16,-0.5 -0.44,-0.93 -0.82,-1.28c-0.37,-0.34 -0.82,-0.59 -1.34,-0.71c-0.53,-0.12 -1.04,-0.1 -1.54,0.05z" fill="#E1B168" id="svg_25"/>
  <path d="m151.02,189.55c0.39,0.4 0.94,0.59 1.63,0.57c0.67,-0.02 1.2,-0.23 1.57,-0.64c0.37,-0.41 0.56,-0.97 0.55,-1.69l-0.11,-4.55l1.06,-0.02l0.11,4.55c0.02,1.01 -0.25,1.81 -0.82,2.39c-0.55,0.59 -1.34,0.89 -2.35,0.9c-1.01,0.03 -1.8,-0.25 -2.4,-0.81c-0.58,-0.56 -0.89,-1.35 -0.91,-2.35l-0.11,-4.55l1.06,-0.02l0.1,4.55c0.02,0.73 0.21,1.27 0.62,1.67z" fill="#E1B168" id="svg_26"/>
  <path d="m164.58,189.63l-1.87,-2.14c-0.18,0.04 -0.32,0.08 -0.43,0.09l-1.93,0.3l0.39,2.38l-1.03,0.16l-1.19,-7.63l2.96,-0.47c0.96,-0.14 1.73,-0.03 2.33,0.33c0.59,0.36 0.95,0.97 1.08,1.78c0.09,0.63 0.04,1.16 -0.18,1.63c-0.22,0.45 -0.57,0.82 -1.06,1.1l2.16,2.3l-1.22,0.17l0,-0.01l-0.01,0.01zm-2.44,-3.03c0.66,-0.1 1.13,-0.31 1.43,-0.66c0.29,-0.35 0.4,-0.79 0.32,-1.35c-0.1,-0.55 -0.32,-0.92 -0.72,-1.16c-0.39,-0.23 -0.91,-0.28 -1.55,-0.18l-1.94,0.3l0.54,3.36l1.94,-0.32l-0.01,0.01l-0.01,0z" fill="#E1B168" id="svg_27"/>
  <path d="m179.17,185.9l-2.19,-1.85c-0.16,0.07 -0.29,0.13 -0.4,0.16l-1.85,0.6l0.72,2.29l-1,0.31l-2.33,-7.35l2.85,-0.92c0.93,-0.28 1.72,-0.3 2.35,-0.03c0.64,0.26 1.09,0.79 1.35,1.59c0.19,0.6 0.21,1.15 0.07,1.63c-0.15,0.5 -0.43,0.92 -0.9,1.26l2.49,1.94l-1.16,0.38l0.01,-0.01l-0.01,0zm-2.88,-2.6c0.62,-0.2 1.08,-0.5 1.32,-0.86c0.25,-0.38 0.28,-0.86 0.11,-1.39c-0.17,-0.53 -0.46,-0.88 -0.88,-1.04c-0.42,-0.17 -0.94,-0.14 -1.57,0.06l-1.85,0.6l1.02,3.23l1.85,-0.6l0,-0.01l0,0.01z" fill="#E1B168" id="svg_28" transform="matrix(1 0 0 1 0 0)"/>
  <path d="m181.19,177.44l4.8,-2.32l0.42,0.87l-3.84,1.86l1.03,2.16l3.45,-1.67l0.42,0.87l-3.44,1.67l1.06,2.21l3.96,-1.91l0.43,0.87l-4.91,2.37l-3.36,-6.97l0,0.01l-0.02,-0.02z" fill="#E1B168" id="svg_29"/>
  <path d="m192.52,172.08c-0.38,0.1 -0.72,0.24 -0.98,0.42c-0.38,0.23 -0.64,0.5 -0.79,0.78c-0.14,0.28 -0.13,0.55 0.03,0.81c0.13,0.23 0.32,0.38 0.56,0.45c0.23,0.05 0.46,0.07 0.72,0.03c0.25,-0.04 0.59,-0.1 1.01,-0.21c0.54,-0.13 0.97,-0.22 1.32,-0.26c0.34,-0.04 0.69,0.01 1.04,0.14c0.34,0.12 0.64,0.4 0.88,0.8c0.23,0.38 0.33,0.77 0.3,1.18c-0.02,0.41 -0.17,0.8 -0.45,1.19c-0.29,0.39 -0.64,0.7 -1.11,1c-0.47,0.29 -1.01,0.48 -1.56,0.58c-0.55,0.1 -1.11,0.08 -1.64,-0.04l-0.07,-1.02c0.5,0.12 1,0.14 1.5,0.07c0.49,-0.08 0.9,-0.23 1.28,-0.45c0.43,-0.27 0.72,-0.56 0.87,-0.89c0.15,-0.33 0.13,-0.62 -0.05,-0.93c-0.13,-0.23 -0.32,-0.37 -0.55,-0.44c-0.24,-0.07 -0.48,-0.08 -0.74,-0.04c-0.27,0.05 -0.6,0.12 -1.03,0.22c-0.51,0.14 -0.94,0.24 -1.3,0.26c-0.34,0.05 -0.7,0 -1.04,-0.11c-0.34,-0.13 -0.63,-0.41 -0.87,-0.79c-0.21,-0.35 -0.3,-0.72 -0.28,-1.11c0.03,-0.38 0.19,-0.76 0.44,-1.11c0.25,-0.35 0.62,-0.69 1.08,-0.96c0.39,-0.24 0.82,-0.41 1.26,-0.53c0.45,-0.11 0.87,-0.16 1.29,-0.15l0.12,1.03c-0.45,-0.04 -0.86,0 -1.24,0.11l0,-0.03z" fill="#E1B168" id="svg_30" transform="rotate(-5 193.25 174.982)"/>
  <path d="m195.94,169.13l4.79,-3.59l0.58,0.77l-1.97,1.49l4,5.42l-0.84,0.63l-4,-5.42l-1.98,1.49l-0.57,-0.78l-0.01,-0.01z" fill="#E1B168" id="svg_31" transform="rotate(-5 199.25 169.698)"/>
  <path d="m211.25,167.43l-1.68,-1.17l-3.42,2.16l0.32,2.02l-0.94,0.58l-1.16,-8.36l0.92,-0.58l6.93,4.73l-0.97,0.62zm-5.25,-0.05l2.73,-1.71l-3.34,-2.32l0.61,4.03z" fill="#E1B168" id="svg_32" transform="matrix(1 0 0 1 0 0) rotate(-5 208.5 166.55)"/>
  <path d="m213.42,162.07c0.55,-0.07 1.03,-0.4 1.44,-0.95c0.4,-0.54 0.57,-1.09 0.49,-1.64c-0.08,-0.55 -0.42,-1.05 -0.98,-1.47l-3.63,-2.74l0.63,-0.85l3.63,2.74c0.79,0.6 1.25,1.31 1.37,2.11c0.12,0.8 -0.13,1.62 -0.73,2.43c-0.6,0.81 -1.31,1.27 -2.11,1.39c-0.81,0.11 -1.61,-0.13 -2.41,-0.72l-3.63,-2.74l0.63,-0.85l3.63,2.74c0.55,0.43 1.1,0.63 1.66,0.55l0.01,0z" fill="#E1B168" id="svg_33"/>
  <path d="m222.1,152.97l-2.81,-0.42c-0.1,0.14 -0.19,0.26 -0.27,0.33l-1.27,1.49l1.81,1.57l-0.68,0.8l-5.82,-5.02l1.95,-2.29c0.63,-0.75 1.29,-1.18 1.98,-1.28c0.68,-0.11 1.34,0.1 1.97,0.65c0.48,0.4 0.78,0.87 0.9,1.36c0.13,0.49 0.1,1.02 -0.11,1.56l3.13,0.33l-0.78,0.92zm-3.8,-0.69c0.43,-0.5 0.64,-0.99 0.66,-1.43c0.01,-0.46 -0.2,-0.87 -0.63,-1.24c-0.42,-0.36 -0.84,-0.5 -1.29,-0.41c-0.44,0.08 -0.87,0.38 -1.3,0.87l-1.27,1.49l2.56,2.22l1.27,-1.49l0,-0.01z" fill="#E1B168" id="svg_34" transform="matrix(1 0 0 1 0 0) rotate(-5 218 152.433)"/>
  <path d="m226.61,143.95l-2.02,-0.2l-1.98,3.55l1.24,1.62l-0.54,0.98l-5.02,-6.78l0.53,-0.95l8.34,0.79l-0.56,0.99l0.01,0zm-4.62,2.5l1.56,-2.82l-4.05,-0.42l2.48,3.25l0.01,-0.01z" fill="#E1B168" id="svg_35" transform="matrix(1 0 0 1 0 0)"/>
  <path d="m222.13,133.47l0.4,-0.96l7.07,2.99l-0.41,0.99l-7.18,1.74l5.48,2.31l-0.4,0.96l-7.07,-2.99l0.41,-0.99l7.18,-1.74l-5.48,-2.31z" fill="#E1B168" id="svg_36" transform="matrix(1 0 0 1 0 0)"/>
  <path d="m223.04,130.66l2.23,-5.6l0.9,0.36l-0.91,2.31l6.21,2.52l-0.39,0.99l-6.21,-2.53l-0.91,2.31l-0.91,-0.36l-0.01,0z" fill="#E1B168" id="svg_37"/>
  <path d="m152.78,117.58c-3.52,0 -6.94,-0.76 -10.18,-2.24c-2.42,1.14 -4.98,1.7 -7.62,1.7c-10.03,0 -18.2,-8.23 -18.2,-18.34c0,-8.6 5.98,-16.07 14.28,-17.9c4.34,-8.06 12.62,-13.04 21.72,-13.04c13.01,0 23.75,10.16 24.62,23.21c4.11,2.57 6.64,7.12 6.64,11.98c0,7.78 -6.28,14.11 -14,14.11c-2.39,0 -4.75,-0.63 -6.86,-1.83c-3.28,1.56 -6.79,2.35 -10.4,2.35zm-10.18,-3.97l0.35,0.16c6.36,3.01 13.65,2.96 19.95,-0.14l0.38,-0.19l0.36,0.22c1.95,1.18 4.17,1.81 6.42,1.81c6.86,0 12.44,-5.62 12.44,-12.53c0,-4.46 -2.4,-8.62 -6.24,-10.85l-0.37,-0.22l-0.02,-0.43c-0.62,-12.4 -10.77,-22.13 -23.09,-22.13c-8.64,0 -16.5,4.8 -20.52,12.53l-0.17,0.33l-0.36,0.08c-7.75,1.56 -13.39,8.47 -13.39,16.44c0,9.24 7.47,16.76 16.64,16.76c2.53,0 4.97,-0.58 7.28,-1.7l0.34,-0.14z" fill="#E1B168" id="svg_39"/>
  <path d="m168.75,132.28l-36.66,0l0,-17.03l0.88,0.11c0.76,0.09 1.4,0.14 2.01,0.14c2.53,0 4.97,-0.58 7.28,-1.7l0.34,-0.19l0.35,0.16c6.36,3.01 13.65,2.96 19.95,-0.14l0.38,-0.19l0.36,0.22c1.36,0.82 2.84,1.37 4.45,1.64l0.66,0.11l0,16.87zm-35.1,-1.57l33.53,0l0,-13.98c-1.4,-0.3 -2.75,-0.81 -3.98,-1.51c-6.52,3.07 -14.03,3.11 -20.6,0.12c-2.42,1.14 -4.98,1.7 -7.62,1.7c-0.42,0 -0.86,-0.01 -1.33,-0.06l0,13.73z" fill="#E1B168" id="svg_40"/>
  <path d="m134.87,93.32c-0.44,0 -0.78,-0.35 -0.78,-0.79c0,-10.25 8.28,-18.59 18.45,-18.59c0.44,0 0.78,0.34 0.78,0.78c0,0.44 -0.34,0.79 -0.78,0.79c-9.31,0 -16.89,7.64 -16.89,17.02c0,0.44 -0.34,0.79 -0.78,0.79z" fill="#E1B168" id="svg_41"/>
  <path d="m299.64,78.79l-105.39,0c-0.44,0 -0.78,-0.35 -0.78,-0.79c0,-0.44 0.34,-0.79 0.78,-0.79l105.39,0c0.43,0 0.78,0.35 0.78,0.79c0,0.44 -0.35,0.79 -0.78,0.79z" fill="#E1B168" id="svg_42"/>
  <path d="m299.64,122.85l-105.39,0c-0.44,0 -0.78,-0.34 -0.78,-0.78c0,-0.44 0.34,-0.79 0.78,-0.79l105.39,0c0.43,0 0.78,0.35 0.78,0.79c0,0.44 -0.35,0.78 -0.78,0.78z" fill="#E1B168" id="svg_43"/>
  <path d="m106.59,78.79l-105.39,0c-0.44,0 -0.78,-0.35 -0.78,-0.79c0,-0.44 0.34,-0.79 0.78,-0.79l105.39,0c0.44,0 0.78,0.35 0.78,0.79c0,0.44 -0.36,0.79 -0.78,0.79z" fill="#E1B168" id="svg_44"/>
  <path d="m106.59,122.85l-105.39,0c-0.44,0 -0.78,-0.34 -0.78,-0.78c0,-0.44 0.34,-0.79 0.78,-0.79l105.39,0c0.44,0 0.78,0.35 0.78,0.79c0,0.44 -0.36,0.78 -0.78,0.78z" fill="#E1B168" id="svg_45"/>
  <path d="m60.04,103.91l-27.03,0c-2.12,0 -3.86,-1.74 -3.86,-3.89c0,-2.14 1.74,-3.89 3.86,-3.89l29.16,0c0.44,0 0.78,0.35 0.78,0.79c0,0.44 -0.34,0.79 -0.78,0.79l-29.16,0c-1.26,0 -2.3,1.04 -2.3,2.31c0,1.28 1.04,2.32 2.3,2.32l27.02,0c0.43,0 0.78,0.34 0.78,0.79c0,0.44 -0.35,0.78 -0.77,0.78z" fill="#E1B168" id="svg_46"/>
  <path d="m15.82,111.14c-8.2,0 -14.89,-4.98 -14.89,-11.1c0,-6.13 6.68,-11.1 14.89,-11.1c8.21,0 14.89,4.97 14.89,11.1c0,6.12 -6.67,11.1 -14.89,11.1zm0,-20.64c-7.34,0 -13.32,4.28 -13.32,9.52c0,5.26 5.98,9.53 13.32,9.53c7.35,0 13.33,-4.28 13.33,-9.53c0,-5.24 -5.97,-9.52 -13.33,-9.52z" fill="#E1B168" id="svg_47"/>
  <path d="m266.09,103.91l-27.02,0c-0.43,0 -0.78,-0.34 -0.78,-0.78c0,-0.45 0.35,-0.79 0.78,-0.79l27.02,0c1.27,0 2.3,-1.04 2.3,-2.32c0,-1.27 -1.03,-2.31 -2.3,-2.31l-29.16,0c-0.43,0 -0.78,-0.35 -0.78,-0.79c0,-0.44 0.35,-0.79 0.78,-0.79l29.16,0c2.12,0 3.86,1.75 3.86,3.89c0,2.16 -1.74,3.89 -3.86,3.89z" fill="#E1B168" id="svg_48"/>
  <path d="m280.92,107.39l-5.22,0c-4.03,0 -7.31,-3.3 -7.31,-7.36c0,-4.07 3.28,-7.37 7.31,-7.37l5.22,0l0,14.73zm-5.22,-13.14c-3.17,0 -5.75,2.59 -5.75,5.79c0,3.2 2.58,5.79 5.75,5.79l3.66,0l0,-11.57l-3.66,0l0,-0.01z" fill="#E1B168" id="svg_49"/>
  <path d="m297.39,94.25l-17.24,0c-0.44,0 -0.78,-0.35 -0.78,-0.79c0,-0.44 0.34,-0.79 0.78,-0.79l17.24,0c0.43,0 0.78,0.35 0.78,0.79c0,0.44 -0.36,0.79 -0.78,0.79z" fill="#E1B168" id="svg_50"/>
  <path d="m297.39,100.81l-17.24,0c-0.44,0 -0.78,-0.34 -0.78,-0.78c0,-0.45 0.34,-0.79 0.78,-0.79l17.24,0c0.43,0 0.78,0.34 0.78,0.79c0,0.44 -0.36,0.78 -0.78,0.78z" fill="#E1B168" id="svg_51"/>
  <path d="m297.39,107.39l-17.24,0c-0.44,0 -0.78,-0.34 -0.78,-0.78c0,-0.44 0.34,-0.79 0.78,-0.79l17.24,0c0.43,0 0.78,0.35 0.78,0.79c0,0.44 -0.36,0.78 -0.78,0.78z" fill="#E1B168" id="svg_52"/>
  <path d="m102.37,111.14l-13.66,0c-0.43,0 -0.78,-0.35 -0.78,-0.79c0,-0.44 0.35,-0.79 0.78,-0.79l13.66,0c0.44,0 0.78,0.35 0.78,0.79c0,0.44 -0.34,0.79 -0.78,0.79z" fill="#E1B168" id="svg_53"/>
  <path d="m101.7,99.41l-25.92,0c-0.44,0 -0.78,-0.35 -0.78,-0.79c0,-0.44 0.34,-0.79 0.78,-0.79l25.92,0c0.44,0 0.78,0.35 0.78,0.79c0,0.44 -0.34,0.79 -0.78,0.79z" fill="#E1B168" id="svg_54"/>
  <path d="m103.42,87.68l-13.66,0c-0.44,0 -0.78,-0.35 -0.78,-0.79c0,-0.44 0.34,-0.78 0.78,-0.78l13.66,0c0.44,0 0.78,0.34 0.78,0.78c0,0.44 -0.34,0.79 -0.78,0.79z" fill="#E1B168" id="svg_55"/>
  <path d="m102.36,105.27l-20.29,0c-0.43,0 -0.78,-0.35 -0.78,-0.79c0,-0.44 0.35,-0.79 0.78,-0.79l20.29,0c0.43,0 0.78,0.35 0.78,0.79c0,0.44 -0.36,0.79 -0.78,0.79z" fill="#E1B168" id="svg_56"/>
  <path d="m102.25,93.46l-20.29,0c-0.43,0 -0.78,-0.35 -0.78,-0.79c0,-0.44 0.35,-0.79 0.78,-0.79l20.29,0c0.43,0 0.78,0.35 0.78,0.79c0,0.44 -0.35,0.79 -0.78,0.79z" fill="#E1B168" id="svg_57"/>
  <path d="m212.1,89.08l-13.65,0c-0.44,0 -0.78,-0.34 -0.78,-0.78c0,-0.45 0.34,-0.79 0.78,-0.79l13.65,0c0.44,0 0.79,0.34 0.79,0.79c0,0.44 -0.35,0.78 -0.79,0.78z" fill="#E1B168" id="svg_58"/>
  <path d="m225.06,100.81l-25.92,0c-0.44,0 -0.79,-0.35 -0.79,-0.79c0,-0.44 0.35,-0.78 0.79,-0.78l25.92,0c0.44,0 0.78,0.34 0.78,0.78c0,0.44 -0.34,0.79 -0.78,0.79z" fill="#E1B168" id="svg_59"/>
  <path d="m211.06,112.54l-13.66,0c-0.43,0 -0.78,-0.35 -0.78,-0.79c0,-0.44 0.35,-0.78 0.78,-0.78l13.66,0c0.44,0 0.78,0.34 0.78,0.78c0,0.44 -0.34,0.79 -0.78,0.79z" fill="#E1B168" id="svg_60"/>
  <path d="m218.76,94.96l-20.28,0c-0.44,0 -0.78,-0.35 -0.78,-0.79c0,-0.44 0.34,-0.79 0.78,-0.79l20.28,0c0.44,0 0.78,0.35 0.78,0.79c0,0.44 -0.34,0.79 -0.78,0.79z" fill="#E1B168" id="svg_61"/>
  <path d="m218.87,106.76l-20.28,0c-0.44,0 -0.78,-0.34 -0.78,-0.79c0,-0.44 0.34,-0.78 0.78,-0.78l20.28,0c0.44,0 0.78,0.34 0.78,0.78c0,0.45 -0.36,0.79 -0.78,0.79z" fill="#E1B168" id="svg_62"/>
  <text fill="#000000" font-family="Serif" font-size="24" id="svg_63" stroke="#000000" stroke-width="0" text-anchor="middle" x="180.92" xml:space="preserve" y="81.17"/>
  <text fill="#e1b168" font-family="Sans-serif" font-size="11" id="svg_80" stroke-width="0" text-anchor="middle" transform="matrix(1 0 0 1 0 0) rotate(35 101.25 171.006)" x="101.2" xml:space="preserve" y="174.86">M</text>
  <path d="m151.24,61.07c-4.58,0 -9.16,-0.52 -13.61,-1.51c-4.35,-0.99 -8.6,-2.46 -12.67,-4.35c-4,-1.86 -7.86,-4.2 -11.47,-6.87c-3.58,-2.65 -6.94,-5.73 -9.99,-9.11c-3.06,-3.36 -5.82,-7.09 -8.25,-11.03c-0.25,-0.39 -0.14,-0.93 0.21,-1.19c0.36,-0.26 0.84,-0.18 1.07,0.23c2.36,3.86 5.08,7.49 8.07,10.79c2.98,3.29 6.26,6.29 9.76,8.88c3.52,2.63 7.3,4.89 11.21,6.72c3.98,1.86 8.14,3.28 12.37,4.24c8.69,1.97 17.89,1.97 26.58,0c4.23,-0.94 8.4,-2.38 12.37,-4.24c3.91,-1.83 7.68,-4.09 11.21,-6.72c3.5,-2.6 6.78,-5.6 9.76,-8.88c2.99,-3.3 5.69,-6.93 8.06,-10.79c0.25,-0.41 0.74,-0.5 1.08,-0.23c0.36,0.26 0.46,0.81 0.21,1.19c-2.43,3.95 -5.19,7.66 -8.25,11.03c-3.05,3.36 -6.41,6.43 -9.99,9.11c-3.61,2.7 -7.47,5.01 -11.47,6.87c-4.08,1.9 -8.34,3.36 -12.67,4.35c-4.44,1 -9.01,1.51 -13.59,1.51z" fill="#E1B168" id="svg_67" transform="rotate(180 151.117 43.96)"/>
 </g>
</svg>